{
  "accessors": [
    {
      "bufferView": 2,
      "componentType": 5126,
      "count": 43905,
      "max": [
        136.48638916015625,
        11.752336502075195,
        29.862754821777344
      ],
      "min": [
        -135.32984924316406,
        -255.70213317871094,
        0.012726783752441406
      ],
      "type": "VEC3"
    },
    {
      "bufferView": 2,
      "byteOffset": 526860,
      "componentType": 5126,
      "count": 43905,
      "max": [
        1,
        1,
        1
      ],
      "min": [
        -1,
        -1,
        -1
      ],
      "type": "VEC3"
    },
    {
      "bufferView": 1,
      "componentType": 5126,
      "count": 43905,
      "max": [
        0.99950003623962402,
        0.99781525135040283
      ],
      "min": [
        0.00050000002374872565,
        0.00050000002374872565
      ],
      "type": "VEC2"
    },
    {
      "bufferView": 1,
      "byteOffset": 351240,
      "componentType": 5126,
      "count": 43905,
      "max": [
        0.99950003623962402,
        0.99781525135040283
      ],
      "min": [
        0.00050000002374872565,
        0.00050000002374872565
      ],
      "type": "VEC2"
    },
    {
      "bufferView": 0,
      "componentType": 5125,
      "count": 143820,
      "max": [
        43904
      ],
      "min": [
        0
      ],
      "type": "SCALAR"
    },
    {
      "bufferView": 2,
      "byteOffset": 1053720,
      "componentType": 5126,
      "count": 20,
      "max": [
        143.70071411132812,
        202.75605773925781,
        11.811023712158203
      ],
      "min": [
        -143.70071411132812,
        -202.75605773925781,
        0
      ],
      "type": "VEC3"
    },
    {
      "bufferView": 2,
      "byteOffset": 1053960,
      "componentType": 5126,
      "count": 20,
      "max": [
        1,
        1,
        1
      ],
      "min": [
        -1,
        -1,
        0
      ],
      "type": "VEC3"
    },
    {
      "bufferView": 1,
      "byteOffset": 702480,
      "componentType": 5126,
      "count": 20,
      "max": [
        203.25602722167969,
        203.25608825683594
      ],
      "min": [
        -202.25608825683594,
        -202.25608825683594
      ],
      "type": "VEC2"
    },
    {
      "bufferView": 0,
      "byteOffset": 575280,
      "componentType": 5125,
      "count": 30,
      "max": [
        19
      ],
      "min": [
        0
      ],
      "type": "SCALAR"
    },
    {
      "bufferView": 2,
      "byteOffset": 1054200,
      "componentType": 5126,
      "count": 27271,
      "max": [
        221.27627563476562,
        38.407878875732422,
        107.3155517578125
      ],
      "min": [
        -31.312765121459961,
        -305.96490478515625,
        -0.58084899187088013
      ],
      "type": "VEC3"
    },
    {
      "bufferView": 2,
      "byteOffset": 1381452,
      "componentType": 5126,
      "count": 27271,
      "max": [
        1,
        1,
        1
      ],
      "min": [
        -1,
        -1,
        -1
      ],
      "type": "VEC3"
    },
    {
      "bufferView": 1,
      "byteOffset": 702640,
      "componentType": 5126,
      "count": 27271,
      "max": [
        0.99950003623962402,
        0.98955023288726807
      ],
      "min": [
        0.00050000002374872565,
        0.00050000002374872565
      ],
      "type": "VEC2"
    },
    {
      "bufferView": 1,
      "byteOffset": 920808,
      "componentType": 5126,
      "count": 27271,
      "max": [
        0.99950003623962402,
        0.98955023288726807
      ],
      "min": [
        0.00050000002374872565,
        0.00050000002374872565
      ],
      "type": "VEC2"
    },
    {
      "bufferView": 0,
      "byteOffset": 575400,
      "componentType": 5125,
      "count": 73584,
      "max": [
        27270
      ],
      "min": [
        0
      ],
      "type": "SCALAR"
    },
    {
      "bufferView": 2,
      "byteOffset": 1708704,
      "componentType": 5126,
      "count": 36,
      "max": [
        436.31863403320312,
        436.318603515625,
        50.9761962890625
      ],
      "min": [
        -436.31863403320312,
        -436.31866455078125,
        -235.74128723144531
      ],
      "type": "VEC3"
    },
    {
      "bufferView": 2,
      "byteOffset": 1709136,
      "componentType": 5126,
      "count": 36,
      "max": [
        1,
        1,
        0
      ],
      "min": [
        -1,
        -1,
        0
      ],
      "type": "VEC3"
    },
    {
      "bufferView": 1,
      "byteOffset": 1138976,
      "componentType": 5126,
      "count": 36,
      "max": [
        0.53374785184860229,
        0.95507562160491943
      ],
      "min": [
        -0.033748000860214233,
        0.21193960309028625
      ],
      "type": "VEC2"
    },
    {
      "bufferView": 0,
      "byteOffset": 869736,
      "componentType": 5125,
      "count": 96,
      "max": [
        35
      ],
      "min": [
        0
      ],
      "type": "SCALAR"
    },
    {
      "bufferView": 2,
      "byteOffset": 1709568,
      "componentType": 5126,
      "count": 3498,
      "max": [
        149.5670166015625,
        47.611709594726562,
        110.62992095947266
      ],
      "min": [
        -149.64573669433594,
        -357.900390625,
        0
      ],
      "type": "VEC3"
    },
    {
      "bufferView": 2,
      "byteOffset": 1751544,
      "componentType": 5126,
      "count": 3498,
      "max": [
        1,
        1,
        1
      ],
      "min": [
        -1,
        -1,
        -1
      ],
      "type": "VEC3"
    },
    {
      "bufferView": 1,
      "byteOffset": 1139264,
      "componentType": 5126,
      "count": 3498,
      "max": [
        0.99950003623962402,
        0.98828613758087158
      ],
      "min": [
        0.00050000002374872565,
        0.00050000002374872565
      ],
      "type": "VEC2"
    },
    {
      "bufferView": 1,
      "byteOffset": 1167248,
      "componentType": 5126,
      "count": 3498,
      "max": [
        3.8849117755889893,
        0.98347651958465576
      ],
      "min": [
        -3.8849117755889893,
        -0.36942094564437866
      ],
      "type": "VEC2"
    },
    {
      "bufferView": 0,
      "byteOffset": 870120,
      "componentType": 5125,
      "count": 6216,
      "max": [
        3497
      ],
      "min": [
        0
      ],
      "type": "SCALAR"
    }
  ],
  "asset": {
    "extras": {
      "author": "Marcin Lubecki (https://sketchfab.com/Lubus)",
      "license": "SKETCHFAB Standard (https://sketchfab.com/licenses)",
      "source": "https://sketchfab.com/3d-models/vr-classroom-baked-3d-max-3990fdb44c95482682f0e2999b224319",
      "title": "VR Classroom Baked + 3d Max"
    },
    "generator": "Sketchfab-7.99.0",
    "version": "2.0"
  },
  "bufferViews": [
    {
      "buffer": 0,
      "byteLength": 894984,
      "byteOffset": 0,
      "name": "floatBufferViews",
      "target": 34963
    },
    {
      "buffer": 0,
      "byteLength": 1195232,
      "byteOffset": 894984,
      "byteStride": 8,
      "name": "floatBufferViews",
      "target": 34962
    },
    {
      "buffer": 0,
      "byteLength": 1793520,
      "byteOffset": 2090216,
      "byteStride": 12,
      "name": "floatBufferViews",
      "target": 34962
    }
  ],
  "buffers": [
    {
      "byteLength": 3883736,
      "uri": "scene.bin"
    }
  ],
  "extensionsUsed": [
    "KHR_materials_unlit"
  ],
  "images": [
    {
      "uri": "textures/Material_239442_baseColor.jpeg"
    },
    {
      "uri": "textures/Material_239436_baseColor.jpeg"
    },
    {
      "uri": "textures/Material_239443_baseColor.png"
    },
    {
      "uri": "textures/Material_239438_baseColor.jpeg"
    }
  ],
  "materials": [
    {
      "doubleSided": true,
      "emissiveFactor": [
        0,
        0,
        0
      ],
      "extensions": {
        "KHR_materials_unlit": {}
      },
      "name": "Material_239442",
      "pbrMetallicRoughness": {
        "baseColorFactor": [
          1,
          1,
          1,
          1
        ],
        "baseColorTexture": {
          "index": 0,
          "texCoord": 0
        },
        "metallicFactor": 0,
        "roughnessFactor": 1
      }
    },
    {
      "alphaMode": "BLEND",
      "doubleSided": false,
      "extensions": {
        "KHR_materials_unlit": {}
      },
      "name": "Wall_Paint_White_Satin0",
      "pbrMetallicRoughness": {
        "baseColorFactor": [
          0,
          0,
          0,
          0
        ],
        "metallicFactor": 0,
        "roughnessFactor": 1
      }
    },
    {
      "doubleSided": true,
      "emissiveFactor": [
        0,
        0,
        0
      ],
      "extensions": {
        "KHR_materials_unlit": {}
      },
      "name": "Material_239436",
      "pbrMetallicRoughness": {
        "baseColorFactor": [
          1,
          1,
          1,
          1
        ],
        "baseColorTexture": {
          "index": 1,
          "texCoord": 0
        },
        "metallicFactor": 0,
        "roughnessFactor": 1
      }
    },
    {
      "alphaCutoff": 0.58098323170731703,
      "alphaMode": "MASK",
      "doubleSided": false,
      "emissiveFactor": [
        0,
        0,
        0
      ],
      "extensions": {
        "KHR_materials_unlit": {}
      },
      "name": "Material_239443",
      "pbrMetallicRoughness": {
        "baseColorFactor": [
          1,
          1,
          1,
          1
        ],
        "baseColorTexture": {
          "index": 2,
          "texCoord": 0
        },
        "metallicFactor": 0,
        "roughnessFactor": 1
      }
    },
    {
      "doubleSided": false,
      "emissiveFactor": [
        0,
        0,
        0
      ],
      "extensions": {
        "KHR_materials_unlit": {}
      },
      "name": "Material_239438",
      "pbrMetallicRoughness": {
        "baseColorFactor": [
          1,
          1,
          1,
          1
        ],
        "baseColorTexture": {
          "index": 3,
          "texCoord": 0
        },
        "metallicFactor": 0,
        "roughnessFactor": 1
      }
    }
  ],
  "meshes": [
    {
      "name": "desk_Material #239442_0",
      "primitives": [
        {
          "attributes": {
            "NORMAL": 1,
            "POSITION": 0,
            "TEXCOORD_0": 2,
            "TEXCOORD_1": 3
          },
          "indices": 4,
          "material": 0,
          "mode": 4
        }
      ]
    },
    {
      "name": "nobake_Wall Paint White Satin0_0",
      "primitives": [
        {
          "attributes": {
            "NORMAL": 6,
            "POSITION": 5,
            "TEXCOORD_0": 7
          },
          "indices": 8,
          "material": 1,
          "mode": 4
        }
      ]
    },
    {
      "name": "props_Material #239436_0",
      "primitives": [
        {
          "attributes": {
            "NORMAL": 10,
            "POSITION": 9,
            "TEXCOORD_0": 11,
            "TEXCOORD_1": 12
          },
          "indices": 13,
          "material": 2,
          "mode": 4
        }
      ]
    },
    {
      "name": "environment_Material #239443_0",
      "primitives": [
        {
          "attributes": {
            "NORMAL": 15,
            "POSITION": 14,
            "TEXCOORD_0": 16
          },
          "indices": 17,
          "material": 3,
          "mode": 4
        }
      ]
    },
    {
      "name": "walls_Material #239438_0",
      "primitives": [
        {
          "attributes": {
            "NORMAL": 19,
            "POSITION": 18,
            "TEXCOORD_0": 20,
            "TEXCOORD_1": 21
          },
          "indices": 22,
          "material": 4,
          "mode": 4
        }
      ]
    }
  ],
  "nodes": [
    {
      "children": [
        1
      ],
      "name": "RootNode (gltf orientation matrix)",
      "rotation": [
        -0.70710678118654746,
        -0,
        -0,
        0.70710678118654757
      ]
    },
    {
      "children": [
        2
      ],
      "name": "RootNode (model correction matrix)"
    },
    {
      "children": [
        3
      ],
      "matrix": [
        1,
        0,
        0,
        0,
        0,
        0,
        1,
        0,
        0,
        -1,
        0,
        0,
        0,
        0,
        0,
        1
      ],
      "name": "VR Classroom.fbx"
    },
    {
      "children": [
        4,
        6,
        8,
        10,
        12
      ],
      "name": "RootNode"
    },
    {
      "children": [
        5
      ],
      "matrix": [
        1,
        0,
        0,
        0,
        0,
        2.2204460492503131e-16,
        -1,
        0,
        0,
        1,
        2.2204460492503131e-16,
        0,
        -1.9073486328125e-06,
        0,
        -84.185546875,
        1
      ],
      "name": "desk"
    },
    {
      "mesh": 0,
      "name": "desk_Material #239442_0"
    },
    {
      "children": [
        7
      ],
      "matrix": [
        1,
        0,
        0,
        0,
        0,
        2.2204460492503131e-16,
        -1,
        0,
        0,
        1,
        2.2204460492503131e-16,
        0,
        0.00018310546875,
        110.23622131347656,
        0,
        1
      ],
      "name": "nobake"
    },
    {
      "mesh": 1,
      "name": "nobake_Wall Paint White Satin0_0"
    },
    {
      "children": [
        9
      ],
      "matrix": [
        1,
        0,
        0,
        0,
        0,
        2.2204460492503131e-16,
        -1,
        0,
        0,
        1,
        2.2204460492503131e-16,
        0,
        -98.750640869140625,
        6.3449192047119141,
        -158.42413330078125,
        1
      ],
      "name": "props"
    },
    {
      "mesh": 2,
      "name": "props_Material #239436_0"
    },
    {
      "children": [
        11
      ],
      "matrix": [
        1,
        0,
        0,
        0,
        0,
        2.2204460492503131e-16,
        -1,
        0,
        0,
        1,
        2.2204460492503131e-16,
        0,
        6.3514690399169922,
        115.2816162109375,
        14.38786792755127,
        1
      ],
      "name": "environment"
    },
    {
      "mesh": 3,
      "name": "environment_Material #239443_0"
    },
    {
      "children": [
        13
      ],
      "matrix": [
        1,
        0,
        0,
        0,
        0,
        2.2204460492503131e-16,
        -1,
        0,
        0,
        1,
        2.2204460492503131e-16,
        0,
        0.03936767578125,
        0,
        -155.14434814453125,
        1
      ],
      "name": "walls"
    },
    {
      "mesh": 4,
      "name": "walls_Material #239438_0"
    }
  ],
  "samplers": [
    {
      "magFilter": 9729,
      "minFilter": 9987,
      "wrapS": 10497,
      "wrapT": 10497
    }
  ],
  "scene": 0,
  "scenes": [
    {
      "name": "OSG_Scene",
      "nodes": [
        0
      ]
    }
  ],
  "textures": [
    {
      "sampler": 0,
      "source": 0
    },
    {
      "sampler": 0,
      "source": 1
    },
    {
      "sampler": 0,
      "source": 2
    },
    {
      "sampler": 0,
      "source": 3
    }
  ]
}

